<svg xmlns="http://www.w3.org/2000/svg" version="1.1" viewBox="0 0 1440 560">
    <path d="M1560 560L0 560 L0 360.51Q31.14 319.65, 72 350.79Q88.43 295.22, 144 311.64Q189.78 237.42, 264 283.21Q362.75 261.96, 384 360.71Q429.89 286.6, 504 332.48Q513.83 270.31, 576 280.15Q617.64 249.79, 648 291.44Q708.87 280.31, 720 341.17Q765.09 266.26, 840 311.35Q867.51 266.86, 912 294.37Q974.56 284.93, 984 347.49Q1004.14 295.63, 1056 315.78Q1103.7 243.49, 1176 291.19Q1262.34 257.52, 1296 343.86Q1314.84 290.7, 1368 309.54Q1413.96 283.5, 1440 329.47Q1509.49 278.97, 1560 348.46z" fill="#182f5d"></path>
</svg>
