<svg xmlns="http://www.w3.org/2000/svg" version="1.1" viewBox="0 0 1440 560">
    <path d="M1536 560L0 560 L0 362.73Q66.54 309.27, 120 375.82Q189.96 373.78, 192 443.75Q238.24 369.99, 312 416.22Q341.95 374.18, 384 404.13Q402.38 350.5, 456 368.88Q502.53 343.41, 528 389.95Q575.35 365.3, 600 412.65Q645.96 386.61, 672 432.57Q714.57 355.14, 792 397.72Q809.35 343.07, 864 360.41Q930.42 306.83, 984 373.25Q1056.68 325.94, 1104 398.62Q1142.93 317.55, 1224 356.48Q1270.94 331.42, 1296 378.36Q1364.2 326.56, 1416 394.77Q1498.42 357.19, 1536 439.61z" fill="#25467d"></path>
</svg>
