<svg xmlns="http://www.w3.org/2000/svg" version="1.1" viewBox="0 0 1440 560">
    <path d="M1512 560L0 560 L0 484.19Q63.58 427.77, 120 491.35Q186.44 437.79, 240 504.22Q250.98 443.2, 312 454.18Q334.62 404.8, 384 427.41Q426.02 397.44, 456 439.46Q524.24 387.7, 576 455.94Q620.78 380.72, 696 425.5Q794.81 404.31, 816 503.12Q845.08 412.2, 936 441.28Q986.96 420.24, 1008 471.19Q1050.99 442.18, 1080 485.17Q1122.66 407.83, 1200 450.49Q1230.09 408.58, 1272 438.67Q1347.79 394.46, 1392 470.25Q1443.51 401.75, 1512 453.26z" fill="#356cb1"></path>
</svg>
