<svg xmlns="http://www.w3.org/2000/svg" version="1.1" viewBox="0 0 1440 560">
    <path d="M1512 560L0 560 L0 520.95Q60.97 509.92, 72 570.9Q100.27 479.17, 192 507.44Q221.38 464.81, 264 494.19Q325.09 483.28, 336 544.38Q379.22 467.6, 456 510.81Q522.02 456.83, 576 522.85Q624.74 499.59, 648 548.33Q661.65 489.98, 720 503.63Q773.18 436.81, 840 490Q894.51 472.51, 912 527.02Q941.1 484.12, 984 513.21Q1038.76 447.97, 1104 502.73Q1163.66 490.39, 1176 550.05Q1222.02 476.07, 1296 522.08Q1340.64 494.73, 1368 539.37Q1380.2 479.57, 1440 491.77Q1485.58 465.35, 1512 510.93z" fill="white"></path>
</svg>
